<svg width="650" height="650" viewBox="0 0 650 650" fill="none" xmlns="http://www.w3.org/2000/svg">
<g clip-path="url(#clip0_1_4)">
<path d="M1.54007 -0.215393H650.332V651.281H1.54007V-0.215393Z" fill="#3F3F3F"/>
<path d="M242.13 629.583C248.108 632.761 254.414 625.879 250.754 620.183C230.888 589.264 212.076 537.236 242.048 470.231C292.03 358.494 322.444 300.622 322.444 300.622C322.444 300.622 338.621 368.158 382.473 428.207C424.678 486 447.779 558.685 410.537 619.236C407.042 624.919 413.205 631.624 419.144 628.585C465.244 605.003 516.95 557.7 522.784 463.568C524.935 434.804 521.709 394.534 505.578 343.717C484.837 279.311 459.339 249.258 444.586 236.352C440.173 232.491 433.31 235.913 433.672 241.765C437.971 311.259 411.827 328.894 396.946 289.151C391.003 273.277 387.537 245.821 387.537 212.385C387.537 156.72 371.387 99.4181 335.782 52.8541C326.523 40.7451 315.689 29.4301 303.259 19.7811C298.759 16.2871 292.236 19.7991 292.648 25.4811C295.382 63.2171 292.905 171.366 198.024 300.57C111.995 420.421 145.331 512.466 157.16 537.396C179.776 585.155 211.322 613.202 242.13 629.583V629.583Z" fill="#93E0E3"/>
<mask id="mask0_1_4" style="mask-type:alpha" maskUnits="userSpaceOnUse" x="9" y="-104" width="559" height="492">
<rect x="9.64047" y="17.3295" width="476.872" height="382.529" transform="rotate(-14.6387 9.64047 17.3295)" fill="#D9D9D9"/>
</mask>
<g mask="url(#mask0_1_4)">
<path d="M242.13 629.583C248.108 632.761 254.414 625.879 250.754 620.183C230.888 589.264 212.076 537.236 242.048 470.231C292.03 358.494 322.444 300.622 322.444 300.622C322.444 300.622 338.621 368.158 382.473 428.207C424.678 486 447.779 558.685 410.537 619.236C407.042 624.919 413.205 631.624 419.144 628.585C465.244 605.003 516.95 557.7 522.784 463.568C524.935 434.804 521.709 394.534 505.578 343.717C484.837 279.311 459.339 249.258 444.586 236.352C440.173 232.491 433.31 235.913 433.672 241.765C437.971 311.259 411.827 328.894 396.946 289.151C391.003 273.277 387.537 245.821 387.537 212.385C387.537 156.72 371.387 99.4181 335.782 52.8541C326.523 40.7451 315.689 29.4301 303.259 19.7811C298.759 16.2871 292.236 19.7991 292.648 25.4811C295.382 63.2171 292.905 171.366 198.024 300.57C111.995 420.421 145.331 512.466 157.16 537.396C179.776 585.155 211.322 613.202 242.13 629.583V629.583Z" fill="#E3B093"/>
</g>
</g>
<defs>
<clipPath id="clip0_1_4">
<rect width="650" height="650" fill="white"/>
</clipPath>
</defs>
</svg>
